<svg xmlns="http://www.w3.org/2000/svg" id="seo-audit" viewBox="0 0 64 64">
  <rect width="44" height="53" x="6" y="7" rx="6" ry="6" style="fill:#f1f2f2"></rect>
  <rect width="36" height="45" x="10" y="11" rx="2" ry="2" style="fill:#51f2e2"></rect>
  <path d="m36,6h-2.17c-.26,0-.52-.11-.71-.29l-.83-.83c-.57-.57-1.32-.88-2.12-.88h-4.34c-.8,0-1.55.31-2.12.88l-.83.83c-.19.19-.44.29-.71.29h-2.17c-1.65,0-3,1.35-3,3v2c0,1.65,1.35,3,3,3h16c1.65,0,3-1.35,3-3v-2c0-1.65-1.35-3-3-3Z" style="fill:#d91f50"></path>
  <path d="m21.22 17.38-3.3 4.13-1.21-1.21c-.39-.39-1.02-.39-1.41 0s-.39 1.02 0 1.41l2 2c.19.19.44.29.71.29.02 0 .04 0 .06 0 .28-.02.55-.15.73-.37l4-5c.34-.43.27-1.06-.16-1.41-.43-.34-1.06-.27-1.41.16ZM27 20h13c.55 0 1-.45 1-1s-.45-1-1-1h-13c-.55 0-1 .45-1 1s.45 1 1 1ZM27 24h7c.55 0 1-.45 1-1s-.45-1-1-1h-7c-.55 0-1 .45-1 1s.45 1 1 1ZM40 27h-13c-.55 0-1 .45-1 1s.45 1 1 1h13c.55 0 1-.45 1-1s-.45-1-1-1ZM34 31h-7c-.55 0-1 .45-1 1s.45 1 1 1h7c.55 0 1-.45 1-1s-.45-1-1-1ZM31 36h-4c-.55 0-1 .45-1 1s.45 1 1 1h4c.55 0 1-.45 1-1s-.45-1-1-1ZM27 42h2c.55 0 1-.45 1-1s-.45-1-1-1h-2c-.55 0-1 .45-1 1s.45 1 1 1ZM27 47h2c.55 0 1-.45 1-1s-.45-1-1-1h-2c-.55 0-1 .45-1 1s.45 1 1 1ZM31 49h-4c-.55 0-1 .45-1 1s.45 1 1 1h4c.55 0 1-.45 1-1s-.45-1-1-1Z" style="fill:#fff"></path>
  <rect width="6" height="6" x="16" y="27" rx="1" ry="1" style="fill:#fff"></rect>
  <rect width="6" height="6" x="16" y="36" rx="1" ry="1" style="fill:#fff"></rect>
  <rect width="6" height="6" x="16" y="45" rx="1" ry="1" style="fill:#fff"></rect>
  <path d="m29,10h-2c-.55,0-1-.45-1-1s.45-1,1-1h2c.55,0,1,.45,1,1s-.45,1-1,1Z" style="fill:#fff"></path>
  <path d="m51.3,51.88l-3.27-3.27c1.23-1.54,1.97-3.49,1.97-5.61,0-4.96-4.04-9-9-9s-9,4.04-9,9,4.04,9,9,9c2.12,0,4.07-.74,5.61-1.97l3.27,3.27c.2.2.45.29.71.29s.51-.1.71-.29c.39-.39.39-1.02,0-1.41Zm-10.3-1.88c-3.86,0-7-3.14-7-7s3.14-7,7-7,7,3.14,7,7-3.14,7-7,7Z" style="fill:#262626"></path>
  <path d="m54.41,53.59l-2.82,2.82-2-2c-.79-.78-.79-2.04,0-2.82.78-.79,2.04-.79,2.82,0l2,2Z" style="fill:#f1e41a"></path>
  <path d="m57.41,59.41c-.39.39-.9.59-1.41.59s-1.02-.2-1.41-.59l-3-3,2.82-2.82,3,3c.79.78.79,2.04,0,2.82Z" style="fill:#d91f50"></path>
</svg>
